<?xml version="1.0" encoding="UTF-8"?>
<svg xmlns="http://www.w3.org/2000/svg" xmlns:xlink="http://www.w3.org/1999/xlink" width="375pt" height="374.999991pt" viewBox="0 0 375 374.999991" version="1.2">
<defs>
<clipPath id="clip1">
  <path d="M 6 5 L 340 5 L 340 375 L 6 375 Z M 6 5 "/>
</clipPath>
<clipPath id="clip2">
  <path d="M 176.753906 -91.503906 L 489.933594 112.015625 L 312.976562 384.320312 L -0.203125 180.796875 Z M 176.753906 -91.503906 "/>
</clipPath>
<clipPath id="clip3">
  <path d="M 176.753906 -91.503906 L 489.933594 112.015625 L 312.976562 384.320312 L -0.203125 180.796875 Z M 176.753906 -91.503906 "/>
</clipPath>
</defs>
<g id="surface1">
<g clip-path="url(#clip1)" clip-rule="nonzero">
<g clip-path="url(#clip2)" clip-rule="nonzero">
<g clip-path="url(#clip3)" clip-rule="nonzero">
<path style=" stroke:none;fill-rule:nonzero;fill:rgb(13.729858%,70.979309%,70.979309%);fill-opacity:1;" d="M 326.011719 358.222656 L 326.015625 358.21875 L 339.519531 25.402344 L 339.449219 25.347656 C 339.785156 18.949219 336.878906 12.554688 331.125 8.8125 C 325.964844 5.460938 319.773438 5.058594 314.429688 7.09375 L 314.390625 7.066406 L 314.191406 7.167969 C 313.1875 7.566406 312.230469 8.070312 311.304688 8.640625 L 18.214844 158.339844 L 18.214844 158.34375 C 14.953125 159.742188 12.054688 162.082031 9.976562 165.28125 C 4.390625 173.875 6.824219 185.363281 15.40625 190.941406 L 297.367188 374.175781 C 305.949219 379.753906 317.433594 377.308594 323.019531 368.714844 C 325.128906 365.472656 326.085938 361.816406 326.011719 358.222656 Z M 326.011719 358.222656 "/>
</g>
</g>
</g>
</g>
</svg>
